<?xml version="1.0" encoding="UTF-8" standalone="no"?>
<!-- Created with Inkscape (http://www.inkscape.org/) -->

<svg
   version="1.1"
   id="svg1"
   width="999.8996"
   height="1000"
   viewBox="0 0 999.89959 1000"
   xmlns="http://www.w3.org/2000/svg"
   xmlns:svg="http://www.w3.org/2000/svg">
  <defs
     id="defs1" />
  <ellipse
     style="fill:#ffffff;stroke-width:2.42374"
     id="path2"
     cx="499.95001"
     cy="500"
     rx="424.95749"
     ry="425" />
  <path
     id="path1"
     style="fill:#000000;stroke-width:1.00054"
     d="m 479.19232,0.02032497 c -2.35403,-0.0736 -5.07049,0.0546 -8.25503,0.35352 C 462.54305,1.161795 458.10852,3.438285 455.23573,8.430485 c -1.18646,2.06178 -2.23828,8.17076 -3.36489,19.52344 -2.65784,26.78223 -3.61739,28.10752 -22.62079,31.26367 -19.00382,3.15622 -21.99303,1.7119 -28.84478,-13.93946 -12.04441,-27.51292 -14.01373,-29.79415 -25.02483,-28.99804 -8.35907,0.60436 -17.3792,3.7012 -21.05259,7.22656 -5.04401,4.84077 -5.31417,7.35681 -2.93915,27.47852 2.96918,25.155635 2.28357,26.665825 -15.49455,34.097651 -11.64817,4.86933 -17.90074,5.520511 -22.24778,2.31836 -1.50984,-1.112204 -7.69382,-8.521118 -13.74276,-16.464844 -15.32294,-20.122757 -17.89396,-21.153077 -33.37362,-13.390627 -7.61875,3.82052 -9.49191,5.24889 -11.59845,8.84961 -1.38169,2.36172 -2.51147,5.657533 -2.51147,7.32422 0,1.666688 2.7181,10.983402 6.04042,20.705078 8.2932,24.267417 8.10327,24.977837 -9.81347,36.806647 -8.67555,5.72765 -11.10696,6.87605 -14.5669,6.87305 -5.23503,-0.005 -7.25521,-1.29943 -22.64618,-14.50977 -6.87281,-5.89904 -13.53811,-11.13048 -14.81101,-11.62501 -6.25864,-2.43155 -12.39012,-0.29268 -21.4959,7.50001 -6.24304,5.34274 -8.67883,9.66711 -8.67883,15.40234 0,3.85089 4.22443,11.80477 16.85184,31.72071 3.3408,5.26912 4.00642,10.12472 2.08963,15.26172 -1.22611,3.28594 -16.18659,18.82062 -20.14252,20.91601 -5.53114,2.92977 -9.08303,1.92493 -26.79029,-7.58203 -18.24535,-9.79587 -20.57585,-10.39172 -27.42693,-7.00391 -3.79026,1.87426 -11.311131,10.60612 -14.521998,16.85743 -1.550775,3.01859 -1.548479,10.35023 0.0039,13.25586 0.66434,1.24345 6.969088,8.22124 14.012278,15.50585 17.16435,17.75275 17.4497,19.27482 6.84306,36.56445 -10.10797,16.47674 -11.21564,16.78449 -35.514028,9.85937 -12.684268,-3.61507 -18.972858,-4.94968 -21.659942,-4.59961 -6.022131,0.78455 -9.835988,4.48879 -14.191941,13.78711 -4.572992,9.76162 -5.164721,16.19893 -1.9002,20.6875 1.099999,1.51245 8.722447,7.30072 16.937759,12.86328 8.445919,5.71872 15.913946,11.54846 17.185781,13.41602 3.107111,4.56248 2.851152,8.70618 -1.314321,21.22852 -6.274342,18.86208 -7.230424,19.37207 -33.279875,17.75976 -17.411823,-1.0777 -19.128563,-1.03114 -22.579774,0.60938 -5.091888,2.4204 -8.045732,7.44504 -10.08688,17.15234 -3.4724349,16.51415 -1.0787906,19.57229 22.243868,28.41602 18.156756,6.88485 22.616411,9.9325 23.794495,16.25781 0.330425,1.77409 -0.05382,8.57581 -0.855383,15.11523 -2.282232,18.61932 -3.347153,19.4974 -28.579174,23.56446 -19.2077393,3.09601 -21.3264251,3.8848 -25.5072132,9.49414 C 0.26175382,488.39245 0,490.19305 0,500.11407 c 0,9.92101 0.26175382,11.72162 2.0603408,14.13477 4.1807881,5.60933 6.2994739,6.39616 25.5072132,9.49218 25.232021,4.06705 26.296941,4.94515 28.579174,23.56446 0.801523,6.53942 1.185808,13.34115 0.855383,15.11523 -1.178084,6.32532 -5.637739,9.3749 -23.794495,16.25977 -23.3226586,8.84371 -25.7163029,11.90185 -22.243868,28.41601 2.041148,9.7073 4.994992,14.73 10.08688,17.15039 3.451211,1.64052 5.167951,1.68708 22.579774,0.60938 17.067033,-1.05635 19.17722,-1.00727 22.372763,0.51172 1.940601,0.92246 4.386307,2.76999 5.435002,4.10547 2.558195,3.2578 9.036206,22.94484 9.036206,27.46289 0,5.87005 -3.512708,9.54288 -19.435556,20.32422 -8.215312,5.56256 -15.83776,11.35277 -16.937759,12.86523 -3.264521,4.48857 -2.672792,10.92391 1.9002,20.68555 4.355953,9.2983 8.16981,13.0045 14.191941,13.78906 2.687084,0.35007 8.975674,-0.98651 21.659942,-4.60156 24.298389,-6.92513 25.406059,-6.61737 35.514029,9.85937 10.60664,17.28962 10.32129,18.81368 -6.84306,36.56641 -7.04319,7.28461 -13.347939,14.26239 -14.012279,15.50586 -1.552055,2.90561 -1.554351,10.23726 -0.0039,13.25586 3.210867,6.2513 10.731739,14.98123 14.521999,16.85547 6.85108,3.38782 9.18158,2.7939 27.42693,-7.00196 17.70726,-9.50696 21.25915,-10.5118 26.79029,-7.58203 3.95593,2.0954 18.91641,17.63007 20.14252,20.91602 1.91679,5.13699 1.25117,9.99064 -2.08963,15.25976 -12.62741,19.91593 -16.85184,27.86982 -16.85184,31.72071 0,5.72562 2.31508,9.81095 8.67883,15.31445 9.12298,7.88978 15.15211,10.02225 21.49785,7.60547 1.27372,-0.48518 7.70073,-5.52281 14.28177,-11.19532 21.453,-18.49133 21.8488,-18.57574 37.74037,-8.08398 17.91674,11.8288 18.10667,12.53923 9.81347,36.80664 -3.32232,9.72168 -6.04042,19.03835 -6.04042,20.70508 0,1.66673 1.12978,4.96436 2.51147,7.32617 2.10654,3.60063 3.9797,5.02907 11.59845,8.84961 15.47966,7.76244 18.05068,6.73012 33.37362,-13.39258 6.04894,-7.94369 12.23292,-15.35269 13.74276,-16.46484 4.34704,-3.20218 10.59961,-2.55095 22.24778,2.31836 17.77812,7.43187 18.46373,8.94202 15.49455,34.09765 -2.37502,20.1217 -2.10486,22.63972 2.93915,27.48047 3.67339,3.52535 12.69352,6.62213 21.05259,7.22657 11.0111,0.79613 12.98042,-1.48511 25.02483,-28.99805 6.85175,-15.65137 9.84096,-17.09566 28.84478,-13.93945 19.0034,3.1561 19.96295,4.48146 22.62079,31.26367 1.73755,17.509 2.72807,20.63658 7.71407,24.35937 1.50083,1.12057 4.6494,2.37042 6.99735,2.7793 2.34792,0.40877 7.72398,0.6636 11.94801,0.56641 8.16271,-0.18807 11.1703,-1.53963 14.98093,-6.73829 1.00241,-1.3676 3.34424,-9.7101 5.32369,-18.96484 4.24488,-19.84632 4.82774,-21.4111 9.24126,-24.7832 3.12007,-2.38393 4.62884,-2.70528 16.098,-3.4336 20.82032,-1.32194 21.64197,-0.64776 30.08488,24.73829 6.54135,19.66842 8.5842,22.76319 15.95543,24.14843 4.71344,0.88574 20.87056,-2.0836 23.97612,-4.40625 6.36821,-4.76264 6.57497,-5.57982 7.11843,-28.15039 0.65705,-27.28731 0.29294,-26.69505 19.77536,-32.06836 13.36659,-3.68654 13.39077,-3.68826 18.84578,-1.04297 3.839,1.8616 5.26114,3.74522 14.26029,18.88868 10.9188,18.37375 12.73006,20.10156 21.06626,20.10156 5.7763,0 18.75266,-5.54592 22.73209,-9.71485 4.91222,-5.14608 4.93353,-7.6672 0.24803,-28.27929 -5.74481,-25.27209 -5.39574,-26.24616 12.80341,-35.85938 10.96005,-5.78928 16.97737,-6.77414 22.07396,-3.61133 1.45939,0.90567 7.826,7.25807 14.14898,14.11524 6.32298,6.85717 12.80676,13.14951 14.40871,13.98437 5.38618,2.80693 12.085,1.36876 20.67762,-4.43945 8.58105,-5.8004 10.98372,-8.85969 11.65704,-14.84375 0.41143,-3.65641 -0.5605,-6.39236 -7.63987,-21.47852 -8.24209,-17.56396 -8.973,-20.26279 -7.00905,-25.90624 1.53702,-4.41669 19.74941,-19.8531 24.4702,-20.74024 5.91823,-1.11216 8.76947,0.15754 24.82955,11.05859 8.55098,5.80412 16.56602,10.62208 17.81071,10.70508 8.17271,0.54536 12.34763,-1.58207 19.54884,-9.95898 6.33498,-7.36923 7.20631,-9.1373 7.20631,-14.62891 0,-4.18229 -0.72885,-5.49831 -9.24713,-16.69922 -5.08588,-6.68751 -10.59735,-13.95812 -12.24682,-16.15625 -2.4858,-3.31259 -2.98996,-4.91134 -2.94697,-9.34375 0.0493,-5.09267 0.41123,-5.81461 7.57347,-15.11914 13.17459,-17.11535 13.33825,-17.14757 37.47867,-7.3789 14.90375,6.03097 18.54339,7.14679 22.02318,6.7539 5.9709,-0.67416 9.53308,-3.68407 14.74853,-12.46289 8.90036,-14.98131 7.86578,-18.42392 -10.01463,-33.33594 -16.99398,-14.17275 -18.37706,-15.83467 -18.37706,-22.05273 0,-3.90758 1.12616,-7.35394 5.31783,-16.25586 7.90078,-16.77875 9.5267,-17.41904 33.6685,-13.25586 18.63757,3.21399 22.00254,3.27091 26.55398,0.45313 4.00372,-2.47868 6.30248,-6.52223 9.36821,-16.48438 2.58218,-8.39087 2.07506,-13.35911 -1.80841,-17.71289 -1.46604,-1.64359 -10.0784,-6.89222 -19.13872,-11.66406 -15.91983,-8.38463 -16.55363,-8.83918 -18.86529,-13.50977 l -2.39234,-4.83203 2.65598,-12.01758 c 4.7003,-21.26865 4.87445,-21.39578 31.17267,-22.83398 10.41687,-0.56968 19.27671,-1.03802 19.68748,-1.04102 2.07353,-0.0143 8.82644,-7.60385 9.68067,-10.8789 1.75747,-6.73738 2.35677,-17.76048 1.16199,-21.38672 -2.22169,-6.74342 -5.1148,-8.33519 -25.07366,-13.80078 -25.29373,-6.92652 -26.00326,-7.67874 -26.00326,-27.54102 0,-19.8623 0.70953,-20.61645 26.00326,-27.54297 19.95886,-5.46561 22.85197,-7.05737 25.07366,-13.80078 1.19478,-3.62624 0.59548,-14.64934 -1.16199,-21.38672 -0.85423,-3.27504 -7.60714,-10.8646 -9.68067,-10.8789 -0.41077,-0.003 -9.27061,-0.47134 -19.68748,-1.04102 -26.29822,-1.43819 -26.47237,-1.56534 -31.17267,-22.83398 l -2.65598,-12.01758 2.39234,-4.83203 c 2.31166,-4.67058 2.94546,-5.12515 18.86529,-13.50977 9.06032,-4.77185 17.67268,-10.02047 19.13872,-11.66406 3.88347,-4.35379 4.39059,-9.32203 1.80841,-17.71289 -3.06573,-9.96216 -5.36449,-14.00569 -9.36821,-16.48438 -4.55144,-2.81778 -7.91641,-2.76086 -26.55398,0.45313 -24.1418,4.16319 -25.76772,3.52485 -33.6685,-13.25391 -4.19167,-8.90193 -5.31783,-12.34828 -5.31783,-16.25586 0,-6.21806 1.38308,-7.87998 18.37706,-22.05273 17.88041,-14.91202 18.91499,-18.35462 10.01463,-33.33593 -5.21545,-8.77882 -8.77763,-11.79068 -14.74853,-12.46484 -3.47979,-0.3929 -7.11943,0.72292 -22.02318,6.7539 -24.14042,9.76866 -24.30408,9.73644 -37.47867,-7.3789 -7.16224,-9.30454 -7.52447,-10.02452 -7.57347,-15.11719 -0.0429,-4.43241 0.46117,-6.0331 2.94697,-9.3457 1.64947,-2.19812 7.16094,-9.4668 12.24682,-16.1543 8.51828,-11.20091 9.24713,-12.51692 9.24713,-16.69922 0,-5.49159 -0.87133,-7.25967 -7.20631,-14.62891 -7.20121,-8.37691 -11.37613,-10.50433 -19.54884,-9.95898 -1.24469,0.083 -9.25973,4.89902 -17.81071,10.70313 -16.06008,10.90106 -18.91132,12.17077 -24.82955,11.05859 -4.72079,-0.88714 -22.93318,-16.32355 -24.4702,-20.74024 -1.96395,-5.64345 -1.23304,-8.34227 7.00905,-25.90625 7.07937,-15.08614 8.0513,-17.82014 7.63987,-21.47657 -0.67332,-5.984031 -3.07599,-9.045326 -11.65704,-14.845696 -8.59262,-5.808196 -15.29144,-7.246377 -20.67762,-4.439453 -1.60195,0.834836 -8.08573,7.129172 -14.40871,13.986328 -6.32298,6.857141 -12.68959,13.207611 -14.14898,14.113281 -5.37168,3.33355 -11.13272,2.23238 -23.4957,-4.49024 -9.94547,-5.408032 -11.52512,-6.634251 -13.31117,-10.330073 -1.11465,-2.30651 -2.02714,-4.89131 -2.02714,-5.746093 0,-0.854784 1.83261,-9.593206 4.07187,-19.417969 4.57028,-20.05231 4.53579,-22.63331 -0.36326,-27.76562 -3.97943,-4.16894 -16.95579,-9.7129 -22.73209,-9.7129 -8.3362,0 -10.14746,1.72784 -21.06626,20.10157 -8.99915,15.14345 -10.42129,17.025105 -14.26029,18.886716 -5.45501,2.645263 -5.47919,2.645522 -18.84578,-1.041016 -19.48242,-5.3733 -19.11831,-4.78296 -19.77536,-32.07031 -0.54346,-22.57054 -0.75022,-23.38572 -7.11843,-28.1484398 C 591.08502,7.365675 574.9279,4.396275 570.21446,5.282045 c -7.41171,1.39284 -9.44912,4.4733002 -15.97691,24.15039 -8.42124,25.38462 -9.2394,26.05855 -30.0634,24.73633 -11.46916,-0.72823 -12.97793,-1.05166 -16.098,-3.43555 -4.41352,-3.37215 -4.99638,-4.93684 -9.24126,-24.7832 -1.97945,-9.25466 -4.32128,-17.59728 -5.32369,-18.96484 -3.44882,-4.70513 -7.2568,-6.74391003 -14.31888,-6.96485003 z M 499.95001,100.00079 a 399.96,400 0 0 1 399.96,400 399.96,400 0 0 1 -399.96,400 399.96,400 0 0 1 -399.960005,-400 399.96,400 0 0 1 399.960005,-400 z" />
  <path
     style="fill:#000000;stroke-width:1.33501"
     d="m 494.65566,848.48489 -5.67353,-1.3644 -0.02,-7.48699 -0.02,-7.4869 -6.34186,-3.496 -6.34186,-3.496 -4.61454,3.1622 c -2.53795,1.7392 -5.16098,3.1622 -5.82902,3.1622 -0.66793,0 -3.90041,-2.6861 -7.18308,-5.9692 l -5.9687,-5.9692 4.81932,-5.6309 c 5.16308,-6.0324 5.17158,-6.2681 0.60394,-16.5942 -2.51975,-5.697 -2.79912,-5.8886 -8.58235,-5.8886 -5.18848,0 -6.14968,-0.452 -7.27967,-3.4246 -0.71593,-1.8836 -1.30197,-5.4533 -1.30197,-7.9329 0,-4.2339 0.38396,-4.6167 6.31247,-6.2913 6.20178,-1.7518 6.35577,-1.928 8.77862,-10.0423 l 2.46606,-8.2593 -4.77373,-4.1918 c -5.65743,-4.9678 -5.81141,-6.3295 -1.49055,-13.175 4.33477,-6.8673 5.09109,-7.2024 10.83792,-4.801 6.76392,2.8265 7.16578,2.7378 15.34017,-3.3847 7.12778,-5.3386 7.24947,-5.5448 7.24947,-12.276 v -6.84629 l 8.00969,-2.9721 c 4.40526,-1.6346 8.64084,-3.0194 9.41226,-3.0772 0.77192,-0.06 2.71603,2.5983 4.32127,5.9026 2.71542,5.58969 3.27967,6.00779 8.10868,6.00779 2.85472,0 6.97701,0.357 9.16089,0.794 3.62334,0.725 4.28897,0.251 7.61064,-5.41759 2.002,-3.4166 4.06169,-6.0269 4.57694,-5.8008 0.51495,0.226 4.08969,1.5869 7.94311,3.0239 l 7.00609,2.6127 -0.77392,7.40029 c -0.77392,7.4004 -0.77392,7.4004 4.51675,11.0718 6.05729,4.2034 7.83242,4.4193 14.25817,1.7342 4.44386,-1.8569 4.76873,-1.7941 7.83842,1.5168 1.76132,1.8997 3.9707,4.8897 4.90971,6.6445 1.57394,2.9412 1.26237,3.644 -3.9872,8.9934 l -5.69463,5.803 2.11319,6.2248 c 1.16228,3.4237 2.11319,7.0778 2.11319,8.1203 0,1.1524 1.9626,2.2217 5.00599,2.7275 8.88732,1.4772 8.76933,1.3409 7.75793,8.9661 -0.9909,7.4735 -2.20738,8.95 -7.42416,9.0139 -4.85571,0.06 -6.35626,1.4316 -8.63784,7.899 -2.76682,7.8427 -2.70102,8.2059 2.60874,14.4098 l 4.65044,5.4336 -5.20708,5.8211 -5.20708,5.8211 -6.11129,-3.1858 -6.11119,-3.1859 -5.51695,3.6513 c -5.48905,3.6329 -5.51294,3.6848 -4.73032,10.2932 l 0.78692,6.6418 -6.95711,3.15459 -6.9572,3.1546 -2.66983,-3.0703 c -1.46846,-1.68859 -3.60644,-4.80449 -4.75113,-6.92419 -1.9675,-3.6434 -2.48915,-3.8293 -9.54854,-3.4041 l -7.46736,0.45 -2.72562,6.5593 c -2.94651,7.09089 -3.36327,7.24459 -13.21938,4.87419 z m 32.92091,-39.12299 c 14.71982,-4.3717 23.70963,-18.4239 22.51035,-35.1867 -1.15719,-16.1747 -11.99431,-28.9413 -27.31117,-32.1737 -31.32427,-6.6106 -54.02819,29.8955 -34.50944,55.4884 9.24656,12.1242 23.73171,16.4988 39.31026,11.872 z m 112.73101,0.422 c -0.89191,-3.1133 -2.86041,-5.2313 -6.9669,-7.4977 l -5.72333,-3.1586 -3.65063,3.4979 -3.65063,3.4979 -3.78492,-3.9511 c -3.64404,-3.8038 -3.70323,-4.0757 -1.58994,-7.3013 2.78582,-4.2522 2.76542,-6.7395 -0.1,-11.5826 -1.78842,-3.0279 -3.25088,-3.8774 -6.67473,-3.8774 -4.30637,0 -4.38436,-0.107 -4.38436,-6.0078 0,-5.4124 0.30996,-6.0078 3.13038,-6.0078 3.26838,0 6.07189,-2.4836 8.84402,-7.8347 1.35286,-2.6115 1.23367,-4.0586 -0.68493,-8.3135 -1.89201,-4.1962 -2.0099,-5.5288 -0.63594,-7.1849 2.22618,-2.6827 6.55144,-2.5817 9.65292,0.225 2.28868,2.0714 2.96141,2.0889 8.11479,0.211 3.57215,-1.3019 5.75963,-2.9758 6.0048,-4.5951 1.28487,-8.4852 1.48125,-8.7295 6.66774,-8.2991 4.52444,0.375 4.998,0.795 5.38056,4.7673 0.33996,3.5345 1.40006,4.8558 5.62034,7.0091 6.22667,3.1769 8.43845,3.3122 10.64683,0.651 2.30077,-2.7726 5.80842,-2.5027 8.67713,0.667 2.25228,2.489 2.26628,2.8358 0.20698,5.1117 -4.61354,5.0985 -1.42646,15.1176 5.16889,16.249 3.58594,0.615 4.00839,1.2275 4.37936,6.3485 0.39896,5.5108 0.29897,5.6676 -3.63684,5.6676 -3.13169,0 -4.50805,0.891 -6.08399,3.939 -2.60464,5.0372 -2.57264,8.0524 0.12599,11.9061 1.82591,2.6071 1.89481,3.59 0.44195,6.3049 -2.0026,3.7422 -3.92081,3.9852 -9.33906,1.1831 -3.62614,-1.8753 -4.34677,-1.8214 -9.27828,0.695 -3.40276,1.7361 -5.34676,3.6492 -5.34676,5.2618 0,5.0119 -1.53875,6.7574 -5.95691,6.7574 -3.74722,0 -4.50534,-0.59 -5.58004,-4.339 z m 12.75823,-22.9712 c 4.06669,-2.1031 8.12638,-9.2435 8.11838,-14.2788 -0.003,-1.7248 -1.17758,-5.0593 -2.61083,-7.4101 -8.85042,-14.5166 -29.42266,-8.903 -29.42266,8.0287 0,5.6411 0.61494,7.1407 4.53874,11.0648 3.70343,3.7037 5.55845,4.5392 10.0784,4.5392 3.04669,0 7.23087,-0.875 9.29797,-1.9438 z m -284.8302,-14.4108 c -0.35896,-1.6522 -0.82092,-4.5059 -1.0266,-6.3416 -0.29097,-2.5951 -1.62873,-3.7716 -6.01439,-5.2878 -5.55635,-1.921 -5.70052,-1.8927 -9.65323,1.8946 -3.53634,3.3884 -4.41156,3.6628 -7.37496,2.3125 -3.86091,-1.7593 -4.35317,-5.5116 -1.32877,-10.1278 1.85802,-2.836 1.81012,-3.3798 -0.55394,-6.2947 l -2.58774,-3.1904 -3.21108,3.0114 -3.21098,3.0113 -2.90961,-3.0974 c -3.68503,-3.9229 -3.64764,-4.679 0.44396,-8.9496 2.9933,-3.1246 3.19408,-3.9561 1.87181,-7.7497 -1.36227,-3.9081 -1.95341,-4.2495 -7.35787,-4.2495 h -5.87671 v -5.1506 c 0,-4.9827 0.18498,-5.1894 5.67353,-6.3416 5.48646,-1.1517 5.68694,-1.3755 6.0801,-6.78649 0.34596,-4.7619 -0.10099,-5.9284 -3.0036,-7.8302 -6.87402,-4.5045 -2.94781,-10.8458 5.84451,-9.4397 4.57274,0.731 5.58314,0.395 7.9828,-2.6559 2.74553,-3.4907 2.74563,-3.4956 0.1,-7.2155 -3.36506,-4.7262 -3.29717,-5.448 0.79292,-8.4268 3.31137,-2.412 3.42556,-2.3955 8.10259,1.1722 4.39256,3.3507 5.12938,3.5032 9.9487,2.0591 4.71493,-1.4127 5.20488,-1.984 5.20488,-6.0695 0,-7.3078 1.08509,-8.7335 6.64683,-8.7335 4.82512,0 5.0603,0.212 5.87342,5.2981 1.41605,8.8561 9.57624,10.9341 15.42475,3.9278 3.16309,-3.7891 3.73523,-3.9917 7.0322,-2.4893 4.30037,1.9596 5.53365,4.5899 3.73113,7.9581 -2.21178,4.1333 -1.50915,7.8226 1.91771,10.0682 2.47865,1.6242 3.88061,1.7896 5.9195,0.698 4.22848,-2.2632 9.27598,-1.7138 10.82352,1.1781 1.14109,2.1324 0.64194,3.4664 -2.73593,7.3141 -3.85951,4.3962 -4.02939,5.0157 -2.58004,9.4076 1.45166,4.3991 1.91691,4.7015 7.23268,4.7015 h 5.68123 v 6.00789 c 0,5.7068 -0.18998,6.0078 -3.78232,6.0078 -4.29147,0 -9.12209,4.1284 -9.12209,7.7959 0,1.3506 2.08869,4.3565 4.64164,6.6799 4.17288,3.7976 4.48825,4.5608 3.12299,7.5574 -1.65884,3.6411 -5.16669,4.2549 -11.20178,1.9602 -2.87132,-1.0918 -4.11959,-0.913 -6.09409,0.874 -2.85932,2.5879 -3.13169,5.6251 -0.93691,10.4434 1.28877,2.8287 1.14288,3.8413 -0.87391,6.0706 -3.23098,3.5705 -6.22718,3.3724 -10.017,-0.662 -3.61454,-3.8479 -6.54555,-4.1635 -12.08069,-1.3008 -2.55655,1.3222 -3.94491,3.0789 -3.95681,5.0065 -0.04,7.2174 -1.37486,8.9775 -6.78672,8.9775 -4.26627,0 -5.27157,-0.52 -5.81152,-3.0039 z m 18.54755,-33.0062 c 7.83041,-3.791 12.75812,-11.9217 12.75812,-21.0509 0,-11.42489 -5.14898,-19.53349 -15.0241,-23.65999 -9.49625,-3.9682 -18.69073,-1.8112 -26.14108,6.1326 -18.69682,19.93479 3.80262,50.49029 28.40706,38.57829 z m -125.86381,16.3796 c -2.54124,-4.7488 -5.55354,-24.7896 -6.85301,-45.59319 -3.90081,-62.4498 7.64704,-120.1585 36.41386,-181.97259 24.49365,-52.6322 67.12288,-106.47639 106.30536,-134.27249 0.31996,-0.227 -0.77193,-2.6541 -2.42726,-5.3938 -5.60254,-9.2752 -15.9759,-31.6361 -18.72333,-40.3605 -6.73952,-21.4006 -8.73592,-52.61579 -4.80652,-75.15109 9.35547,-53.6535 43.80852,-97.47449 90.42356,-115.01029 17.70993,-6.6622 26.76882,-8.1026 50.42405,-8.0179 24.12508,0.09 36.09079,2.2576 55.11478,10.0002 25.84962,10.5207 52.09909,32.52919 67.99319,57.00819 5.24798,8.0825 5.59635,8.3443 11.10659,8.3443 8.86492,0 34.86832,4.8775 46.66964,8.7539 5.87371,1.9293 15.41795,5.8895 21.20948,8.8004 15.20547,7.6425 34.49115,21.2806 32.68003,23.11 -0.46396,0.468 -7.67234,2.2421 -16.0193,3.9418 -36.57854,7.4485 -73.66703,23.5182 -94.72003,41.0405 -4.27777,3.56029 -8.10439,6.47329 -8.50365,6.47329 -0.39896,0 -0.72592,-2.6248 -0.72592,-5.83289 0,-15.4819 -7.53864,-42.9935 -15.54594,-56.7337 -13.92591,-23.8961 -35.18368,-40.5188 -60.14439,-47.0304 -13.05499,-3.4057 -34.79002,-3.6727 -46.45655,-0.571 -30.49514,8.1086 -55.33905,32.4244 -62.71722,61.3842 -2.53304,9.9423 -2.59574,29.8402 -0.12298,39.1286 8.55604,32.14389 31.13118,52.09719 74.8551,66.16129 10.27907,3.3064 25.59744,8.232 34.04099,10.946 40.29657,12.9522 73.07219,34.3576 101.27197,66.13939 45.84051,51.6633 73.9476,113.868 83.81351,185.49039 3.24758,23.5757 3.20458,72.852 -0.09,98.12779 -1.33816,10.28 -2.66383,18.9437 -2.946,19.2525 -2.44346,2.6753 -19.35617,-22.1592 -31.74993,-46.62149 -14.47145,-28.5632 -15.72682,-34.8322 -13.965,-69.7381 1.49745,-29.6655 0.25797,-44.9393 -5.52075,-68.01189 -10.12109,-40.4135 -31.65013,-79.7036 -59.02259,-107.7153 -9.03489,-9.2459 -22.16208,-20.21409 -24.19298,-20.21409 -0.48395,0 -0.87991,2.1408 -0.87991,4.7574 0,4.55129 -0.18498,4.73919 -4.28227,4.33899 -5.78292,-0.565 -13.70633,-10.54069 -12.45735,-15.68409 0.45695,-1.8839 1.17028,-6.1422 1.58414,-9.4629 l 0.75192,-6.0376 -7.49105,-3.1052 -7.49105,-3.1052 -4.80962,4.2233 c -3.08099,2.7054 -5.59684,3.9185 -7.0001,3.3752 -1.20488,-0.466 -3.9928,-1.1909 -6.19548,-1.6099 -5.61414,-1.0681 -6.77932,-2.2852 -8.67713,-9.0641 -2.18598,-7.8084 -3.76172,-8.9045 -12.10069,-8.4178 l -6.9776,0.407 -2.74413,7.7048 c -2.64203,7.4179 -2.9918,7.7783 -9.39226,9.6793 -8.56994,2.5452 -7.9879,2.6353 -13.34046,-2.0647 l -4.59994,-4.0392 -7.79471,3.7713 -21.14409,2.9022 -12.23318,6.2003 c -12.33106,6.2498 -28.9451,17.9172 -31.66893,22.23979 -2.22308,3.528 0.25298,6.3236 8.91311,10.0641 l 7.57474,3.2716 4.94251,-4.34 4.9425,-4.34 2.42366,2.9935 c 3.10879,3.8395 3.0557,5.717 -0.24597,8.7054 -3.40716,3.0837 -3.37947,6.0807 0.1,10.5005 3.10129,3.943 6.73132,4.5086 9.72442,1.5152 2.67054,-2.6708 5.31077,-2.5258 7.9935,0.439 4.50445,4.9779 1.09759,11.5767 -5.9769,11.5767 -5.07799,0 -7.78102,3.8364 -7.81342,11.0894 -0.02,3.9421 0.61094,4.6929 5.87522,7.0219 l 5.89481,2.6078 -2.12909,5.4207 c -1.75673,4.4727 -2.61264,5.2821 -4.89371,4.6279 -8.91671,-2.5573 -9.34257,-2.4584 -13.91351,3.2301 -4.0066,4.9861 -4.28697,5.8946 -2.9779,9.65 2.24807,6.4495 1.77142,8.319 -2.81122,11.0263 l -4.25638,2.5146 -4.31366,-5.2306 c -4.31387,-5.2306 -4.31387,-5.2306 -13.17229,-4.7796 l -8.85841,0.451 -2.86162,5.8906 c -3.21127,6.6104 -3.50724,6.7309 -9.24197,3.7651 -3.93521,-2.0352 -4.07719,-2.4016 -3.34107,-8.6182 0.71493,-6.0373 0.48096,-6.7348 -3.33356,-9.945 -2.25638,-1.8988 -4.29767,-3.2571 -4.53625,-3.0184 -0.23898,0.239 -3.47735,10.3264 -7.19718,22.4173 -14.06909,45.72979 -32.19907,86.70199 -56.10238,126.78659 -12.52945,21.0112 -50.86041,78.62059 -54.48225,81.88389 -2.63484,2.374 -2.75602,2.3725 -4.05179,-0.05 z M 423.24861,513.73882 c 12.89401,-7.8623 12.89401,-26.8639 0,-34.7262 -6.61184,-4.0317 -16.9973,-3.6438 -22.31797,0.834 -15.29377,12.8702 -7.54574,36.5455 11.96001,36.5455 3.64463,0 7.71832,-1.0434 10.35796,-2.653 z M 618.72265,723.6717 c -0.77392,-2.0192 -1.76252,-4.9412 -2.19658,-6.4932 -0.62994,-2.2513 -2.19948,-2.994 -7.76532,-3.674 -7.18628,-0.87799 -9.0752,0.131 -12.84112,6.8614 -1.32257,2.3636 -5.19398,1.3452 -9.24887,-2.4329 -2.76263,-2.5741 -2.80402,-2.94 -0.85892,-7.59539 2.0338,-4.8679 2.0222,-4.9124 -2.44705,-9.382 l -4.49045,-4.491 -5.0019,2.3855 c -5.0011,2.385 -5.0023,2.3849 -7.53805,-0.915 -3.56294,-4.6372 -3.21628,-7.2138 1.50515,-11.187 4.08189,-3.435 4.09369,-3.484 2.58814,-10.7368 -1.48265,-7.1428 -1.62244,-7.3078 -7.10419,-8.392 -3.07549,-0.608 -5.53175,-1.8379 -5.45835,-2.7326 0.07,-0.895 0.22397,-3.6519 0.33396,-6.1273 0.19298,-4.3328 0.43996,-4.5326 6.63444,-5.3544 5.70373,-0.757 6.68873,-1.3876 8.67703,-5.5576 2.81052,-5.8941 2.80292,-7.4264 -0.06,-12.4169 -2.27687,-3.9676 -2.26008,-4.0552 1.43516,-7.4801 l 3.73902,-3.4656 5.31787,2.9892 5.31797,2.9891 5.86431,-3.1113 c 5.64564,-2.9953 5.87921,-3.3671 6.26257,-9.9692 l 0.39796,-6.8578 6.21498,-0.402 c 6.13229,-0.396 6.23698,-0.334 7.86932,4.6728 1.979,6.0703 2.66283,6.5828 10.31495,7.7304 5.53875,0.831 6.17699,0.601 9.53975,-3.4271 2.85562,-3.4209 4.27967,-4.1458 6.85891,-3.4915 1.79023,0.454 4.0423,2.0997 5.0044,3.6567 1.47426,2.3856 1.41346,3.3437 -0.38596,6.0905 -1.87761,2.8658 -1.90211,3.5932 -0.20298,6.0191 3.84512,5.4903 7.09069,6.7653 14.77693,5.8048 7.13548,-0.892 7.23397,-0.856 9.46415,3.4575 l 2.25367,4.3585 -5.02469,4.2189 c -4.69453,3.9416 -4.97501,4.5891 -4.26918,9.8526 0.9829,7.3298 2.96641,9.5342 8.57794,9.5342 4.56925,0 4.58415,0.02 4.17519,5.6741 -0.40896,5.6566 -0.42896,5.6761 -6.39976,6.3416 -5.42856,0.605 -6.28817,1.2109 -9.18308,6.4725 l -3.19388,5.805 2.78332,4.9528 c 2.78212,4.9505 2.78222,4.9547 0.14298,9.2952 -2.84431,4.6775 -5.09579,4.7772 -11.82152,0.524 -2.9864,-1.8887 -3.69783,-1.8019 -9.34456,1.1403 -7.53995,3.9288 -8.06849,4.635 -8.09399,10.81449 -0.02,5.3989 -2.56484,7.7236 -8.44776,7.7236 -2.32865,0 -3.66622,-1.0514 -4.67052,-3.6715 z m 10.46104,-32.70919 c 3.47206,-1.7563 7.60924,-5.4084 9.96121,-8.793 5.32947,-7.6697 5.71293,-19.4965 0.88491,-27.2826 -8.86931,-14.3026 -27.09718,-17.4973 -38.9143,-6.8202 -14.32956,12.9472 -11.27247,34.7167 6.0053,42.7633 8.40826,3.916 14.51095,3.9526 22.06308,0.132 z m -161.24295,1.335 c -0.73893,-0.918 -1.75882,-3.7715 -2.26557,-6.3415 -1.60444,-8.1382 -2.18268,-9.3452 -4.48295,-9.3586 -1.23538,-0.007 -5.47796,-1.5176 -9.42786,-3.3565 l -7.18168,-3.3435 -5.72493,4.6916 c -3.14869,2.5804 -6.25278,4.6916 -6.89801,4.6916 -1.55944,0 -11.05949,-9.7782 -11.05949,-11.3832 0,-0.692 1.61203,-4.337 3.58234,-8.1006 l 3.58234,-6.8428 -3.58234,-7.5668 c -1.97031,-4.1618 -3.58234,-8.1512 -3.58234,-8.8654 0,-0.714 -3.32277,-1.2986 -7.38407,-1.2986 -8.52914,0 -8.9341,-0.516 -9.15528,-11.6589 l -0.14699,-7.4269 7.81342,-2.139 7.81342,-2.139 3.27227,-10.013 c 3.44966,-10.5555 3.42966,-11.6536 -0.39396,-21.60709 l -2.40206,-6.2538 3.84742,-3.0917 c 2.11609,-1.7005 5.50015,-4.1697 7.52005,-5.4872 3.65093,-2.3813 3.70123,-2.3704 8.50715,1.8497 4.79862,4.2137 4.87141,4.2296 9.79202,2.1479 2.72672,-1.1536 7.16788,-2.7695 9.86931,-3.591 4.52075,-1.3748 5.10799,-2.1521 7.37686,-9.7654 l 2.46506,-8.2718 8.86451,-0.392 8.86441,-0.392 2.12758,7.3195 c 2.28547,7.8626 4.96,11.471 8.53695,11.5178 1.23247,0.02 4.87411,1.2242 8.09269,2.6847 l 5.85191,2.6555 5.71443,-4.683 5.71443,-4.6831 6.78912,5.367 c 3.73393,2.9519 6.78902,5.9367 6.78902,6.633 0,0.696 -1.50235,4.6633 -3.33857,8.81579 l -3.33856,7.5498 3.22068,8.8429 c 1.77142,4.8635 3.62623,9.8624 4.12178,11.1086 0.56395,1.4174 3.56345,2.8185 8.0118,3.7421 4.0698,0.845 7.44526,2.3482 7.89301,3.5151 0.42996,1.1214 0.40596,5.245 -0.06,9.1636 l -0.83692,7.1248 -7.92071,0.919 -7.9207,0.919 -4.20538,8.5288 -4.20528,8.5288 3.68293,7.5101 c 4.17188,8.5072 4.10829,8.6838 -6.0119,16.7104 l -4.89591,3.8832 -6.18378,-5.3526 c -5.72813,-4.9581 -6.40016,-5.2123 -9.12089,-3.4497 -1.61544,1.0466 -5.78642,2.6131 -9.26877,3.4811 -6.73263,1.6782 -6.45076,1.2463 -9.75842,14.9504 -0.84991,3.5206 -1.23017,3.6715 -9.25507,3.6715 -5.08829,0 -8.89591,-0.654 -9.71323,-1.6689 z m 23.63823,-49.0266 c 18.64233,-9.5115 17.66383,-36.4152 -1.67494,-46.053 -8.71741,-4.3446 -14.70652,-4.2714 -23.71021,0.29 -6.0569,3.0682 -7.85102,4.8624 -10.91891,10.92 -4.26918,8.4295 -4.59244,14.6591 -1.14799,22.1231 4.59724,9.9619 13.039,15.2201 24.56265,15.2998 5.14618,0.04 9.45355,-0.826 12.8894,-2.5794 z m 125.19818,-64.12459 c -2.50745,-6.384 -6.87662,-8.6605 -11.27468,-5.8744 -3.84751,2.4375 -6.31757,2.3681 -8.48025,-0.238 -1.37386,-1.6555 -1.40916,-2.6598 -0.16298,-4.6546 0.87391,-1.399 1.58834,-3.3598 1.58834,-4.3574 0,-2.8329 -4.53065,-6.2329 -8.30567,-6.2329 -5.86791,0 -7.13039,-7.5929 -1.37266,-8.2555 5.10519,-0.588 5.60994,-5.2364 0.9649,-8.8902 -4.52255,-3.5578 -3.86681,-7.1914 1.49555,-8.2883 2.26237,-0.463 4.81182,-1.273 5.66543,-1.8007 2.0438,-1.2633 1.98071,-6.8114 -0.11698,-10.2467 -1.41996,-2.3259 -1.28238,-3.0198 0.9229,-4.6547 3.64884,-2.7054 7.09319,-2.3865 8.08819,0.749 1.79223,5.6473 11.34697,2.1999 11.34697,-4.0941 0,-4.4928 2.30397,-5.9678 7.34516,-4.7024 2.36026,0.592 3.33436,1.7441 3.33436,3.9422 0,6.4673 8.49695,9.9912 11.70463,4.8543 1.92351,-3.0804 4.17358,-3.3764 7.45036,-0.98 2.15708,1.5774 2.16598,1.9811 0.13298,6.0561 -2.0058,4.0212 -2.0076,4.6258 -0.02,7.6554 1.60634,2.4518 3.33697,3.2894 6.79662,3.2894 3.93131,0 4.64154,0.462 4.64154,3.021 0,1.8525 -1.16188,3.5309 -3.0037,4.339 -1.86111,0.817 -3.16478,2.7203 -3.42746,5.0047 -0.36496,3.1785 0.14099,3.7997 3.67114,4.5059 2.25217,0.451 4.09489,1.0053 4.09489,1.2328 0,0.228 -0.60994,2.0177 -1.35497,3.978 -1.10599,2.9094 -1.9499,3.415 -4.59274,2.7516 -5.86681,-1.4726 -10.03559,8.3258 -5.08319,11.9474 2.19058,1.602 2.17918,1.8493 -0.20698,4.4862 -3.0307,3.3492 -5.74562,3.5401 -8.961,0.63 -4.45986,-4.0366 -13.17459,0.547 -13.17459,6.92889 0,2.6742 -0.66593,3.2424 -3.80231,3.2424 -3.19688,0 -4.13648,-0.851 -5.9013,-5.34419 z m 14.57203,-21.2589 c 8.29757,-5.0601 8.75672,-17.8983 0.86191,-24.1088 -3.76682,-2.9633 -13.41095,-3.6757 -17.81901,-1.3164 -3.26217,1.7461 -6.60074,8.1409 -6.60074,12.6436 0,4.5174 3.21508,10.6435 6.96411,13.2697 4.04409,2.8329 11.50764,2.6133 16.59343,-0.488 z m -108.51964,-34.8487 c -24.58774,-4.9303 -39.14197,-29.709 -31.85821,-54.2387 3.82541,-12.8828 14.9244,-23.72999 28.02639,-27.39059 27.26528,-7.6177 54.0856,12.43299 54.0856,40.43399 0,21.6429 -16.0096,38.8377 -38.71323,41.5794 -3.30397,0.399 -8.49725,0.226 -11.54055,-0.384 z m 21.59794,-23.2694 c 11.94941,-9.1152 11.22338,-26.5791 -1.50875,-36.2913 -3.79632,-2.8959 -6.31007,-3.6954 -11.78702,-3.7488 -23.47465,-0.229 -30.79042,32.9633 -9.44355,42.8463 6.35896,2.944 16.9077,1.6422 22.73932,-2.8062 z m -6.05259,-217.94798 c -3.11319,-1.1381 -8.0713,-6.0309 -10.13889,-10.0052 -4.19818,-8.0695 -0.45695,-20.8715 7.46705,-25.5529 4.63724,-2.7396 13.56405,-2.8651 18.59834,-0.262 2.0788,1.0751 5.35287,3.8247 7.27588,6.1103 6.76722,8.0431 3.69663,21.973 -6.16969,27.9892 -4.15478,2.5334 -12.50215,3.3764 -17.03269,1.7201 z"
     id="path1-1" />
</svg>
