<?xml version="1.0" encoding="UTF-8" standalone="no"?>
<!-- Created with Inkscape (http://www.inkscape.org/) -->

<svg
   version="1.1"
   id="svg1"
   width="841.02106"
   height="1000"
   viewBox="0 0 841.02105 1000"
   sodipodi:docname="logo.svg"
   inkscape:export-filename="iemanja-logo.svg"
   inkscape:export-xdpi="96"
   inkscape:export-ydpi="96"
   xmlns:inkscape="http://www.inkscape.org/namespaces/inkscape"
   xmlns:sodipodi="http://sodipodi.sourceforge.net/DTD/sodipodi-0.dtd"
   xmlns="http://www.w3.org/2000/svg"
   xmlns:svg="http://www.w3.org/2000/svg">
  <sodipodi:namedview
     id="namedview1"
     pagecolor="#ffffff"
     bordercolor="#000000"
     borderopacity="0.25"
     inkscape:showpageshadow="2"
     inkscape:pageopacity="0.0"
     inkscape:pagecheckerboard="0"
     inkscape:deskcolor="#d1d1d1"
     showgrid="false" />
  <defs
     id="defs1" />
  <path
     style="fill:#000000;stroke-width:1.50915"
     d="m 470.25828,997.68576 c 245.62988,-28.7838 445.4698,-255.60178 343.5629,-389.94328 -67.68417,-89.22599 -218.1488,-11.9643 -158.73854,81.5105 23.1574,36.43453 76.65364,41.57399 90.74992,8.71798 6.86269,-15.99025 -7.93079,-33.87783 -17.0861,-20.65705 -6.30762,9.11326 -7.89715,10.0594 -15.6488,9.3151 -27.00757,-2.59874 -32.40437,-41.0248 -8.1915,-58.30264 30.38678,-21.68058 72.63105,1.56429 79.17922,43.5613 8.2756,53.07657 -25.45843,104.24739 -92.60353,140.47169 -11.21832,6.0553 -11.51688,6.3665 -13.88603,14.5168 -1.32881,4.5835 -4.07893,12.0795 -6.10578,16.6605 -7.29162,16.4873 25.21032,-0.4205 57.96624,-30.1538 11.11067,-10.0863 12.94072,-11.0518 17.57809,-9.2722 14.01554,5.3825 -39.28053,59.9064 -85.36068,87.3303 -131.7007,78.3811 -311.62951,61.2084 -463.79551,-44.2669 C 77.843222,763.9706 26.933112,639.93071 86.763882,576.44741 c 34.384128,-36.48331 92.106478,-24.73767 94.987798,19.32824 2.2287,34.041 -45.91363,57.07056 -59.75088,28.58448 -7.26638,-14.96589 -25.172468,-7.46823 -25.078268,10.50851 0.2523,45.43256 78.354998,58.12266 116.818058,18.97586 C 304.93709,561.02652 149.6383,439.40036 53.484852,528.3362 -55.213199,628.87555 8.0321013,821.11936 186.50511,932.67016 c 78.86887,49.2953 193.58776,75.58054 283.74896,65.0156 z m 45.27025,-97.198 c 93.93989,-13.1913 144.03842,-68.8893 130.6898,-145.2999 -10.4488,-59.81732 -50.07162,-101.30804 -140.20338,-146.81462 -56.13199,-28.34058 -89.81471,-54.97726 -121.76998,-96.2981 -12.49919,-16.1635 -12.98194,-16.58905 -18.91615,-16.67988 -3.34725,-0.0505 -13.76744,-1.49701 -23.15067,-3.21269 -22.46103,-4.10416 -23.44839,-3.27155 -18.97838,16.01044 12.97941,55.97639 59.07217,107.07237 131.96898,146.29234 12.03411,6.47583 30.02935,16.15425 39.98867,21.51069 71.00536,38.18552 98.203,90.72048 73.27358,141.53472 -31.12266,63.4387 -117.11578,67.7801 -214.00428,10.8037 -68.8347,-40.4781 -109.82586,-58.25808 -164.0891,-71.1719 -51.49125,-12.25361 -52.06398,-11.92477 -23.38952,13.45627 100.45357,88.91483 248.20676,143.96193 348.58043,129.86643 z m -27.19849,-64.9988 c 56.72659,-15.2468 63.54891,-96.01214 10.49926,-124.29217 -47.29542,-25.21284 -103.7697,8.00648 -103.98416,61.16127 -0.1682,45.1121 45.57134,76.0086 93.4849,63.1309 z m -36.1797,-33.3202 c -12.24436,-4.9873 -18.99604,-16.92044 -17.79255,-31.43723 3.09495,-37.34787 59.24879,-36.86849 62.63977,0.50461 2.22029,24.50802 -21.10279,40.58072 -44.84722,30.90232 z M 314.70129,722.99374 c 25.42646,-4.68447 34.6541,-38.26711 15.05673,-54.79309 -21.68226,-18.28454 -54.16148,-4.31441 -54.16148,23.29617 0,21.6116 17.26775,35.52034 39.10475,31.49692 z M 507.15957,560.57826 c 2.3128,-14.26449 10.654,-49.95303 11.9786,-51.27847 0.25231,-0.25231 6.52629,0.94193 13.90621,2.68284 86.34719,20.42577 115.54561,14.68415 106.27677,-20.89927 -6.56834,-25.23134 -6.22353,-28.36413 3.79298,-34.23611 14.67491,-8.60192 12.13083,-19.47963 -4.95358,-21.18521 -28.08071,-2.80059 -27.9083,-2.01003 -3.04449,-14.05003 12.24184,-5.92916 22.25751,-11.0846 22.25751,-11.45969 0,-0.33641 -1.97639,-3.95278 -4.39851,-7.94761 -8.8618,-14.6421 -9.03673,-14.42428 19.09696,-23.75704 15.3124,-5.07974 15.26782,-5.00405 7.771,-13.11229 -26.11441,-28.2405 -35.24113,-50.19272 -36.63974,-88.12426 -1.91752,-51.93195 -1.01763,-49.07922 -14.15683,-44.83797 -44.80517,14.46044 -92.38401,65.31252 -92.39663,98.75303 -0.0252,71.23748 -38.97776,128.83704 -104.49465,154.52506 -16.75389,6.56834 -16.21648,5.65163 -10.06697,17.19206 13.18126,24.73514 46.43506,56.92758 72.64114,70.32162 9.88615,5.05451 9.50013,5.44138 12.42939,-12.58666 z m 77.78396,-243.62237 c -5.39933,-2.54828 -13.48234,-6.34968 -17.97169,-8.44802 -8.16627,-3.81821 -8.16627,-3.81821 -2.93515,-6.50105 22.4787,-11.53455 41.68584,-12.79019 62.10993,-4.06212 8.55987,3.65843 8.08217,4.33965 -5.48343,7.90556 -12.23595,3.21269 -13.03408,4.5499 -7.92238,13.27545 2.1446,3.65842 3.89391,7.01408 3.89391,7.45141 0,1.60634 -22.12715,-5.11338 -31.68867,-9.62375 z M 235.95269,502.32103 c 25.07575,-13.48402 30.08317,-42.33342 11.67752,-67.27293 -14.61603,-19.80426 -32.63145,16.49991 -20.24244,40.78931 2.06049,4.03688 3.70889,10.77258 4.28078,17.43512 0.9083,10.66157 0.98399,10.82473 4.28918,9.0485 z M 392.54496,462.17341 C 486.87424,451.16618 538.16954,335.57179 485.27211,253.20934 413.42825,141.34738 237.64566,192.5796 237.21085,325.50819 c -0.25231,84.77365 70.01801,146.62118 155.33411,136.66522 z M 347.87772,433.29542 C 293.43114,421.93076 254.50468,361.90655 265.70702,306.5912 289.0671,191.2407 453.14274,190.36016 476.9124,305.45583 493.08684,383.77635 426.53382,449.71207 347.87772,433.29374 Z m -1.51383,-39.24016 c 8.48838,-5.16384 7.51869,-16.23499 -1.80818,-20.72181 -11.18469,-5.3741 -21.94213,10.54382 -12.74814,18.86653 4.94518,4.47421 9.32772,5.03769 14.55632,1.85864 z m 74.92114,-3.58273 c 9.31258,-9.31426 0.50461,-24.37771 -11.70275,-20.10703 -8.44128,2.94356 -10.75492,12.12578 -4.82744,19.16761 4.92836,5.85348 11.2587,6.21512 16.53355,0.94194 z m -33.26642,-29.32794 c 37.04847,-17.06928 25.57869,-74.176 -14.88515,-74.11124 -35.58342,0.0589 -52.83268,41.09545 -27.60217,65.66996 11.61696,11.31588 28.82669,14.73461 42.48732,8.44128 z m -26.3726,-21.04224 c -10.01399,-7.46823 -11.2015,-19.04398 -2.81741,-27.43312 11.60771,-11.6094 31.86276,-4.04529 31.86276,11.90291 0,16.01127 -16.53943,24.85372 -29.04788,15.53021 z m -50.53418,2.83423 c 11.78097,-4.77698 8.4682,-23.39288 -4.09575,-23.03545 -8.94253,0.2523 -15.0685,11.78433 -9.86344,18.56544 3.84344,5.00405 8.76339,6.57676 13.9634,4.4658 z m 131.50979,-1.58952 c 10.82894,-4.36488 6.99726,-22.62924 -4.75174,-22.62924 -11.41428,0 -16.42338,13.17032 -7.82146,20.56875 4.39011,3.77616 7.17388,4.23031 12.57152,2.06049 z M 319.41603,291.84313 c 8.73144,-2.67444 11.82302,-13.71278 5.50025,-19.64952 -4.59195,-4.31441 -13.12827,-4.40693 -16.94733,-0.1682 -7.58597,8.38494 0.88307,23.07413 11.44288,19.8379 z m 116.95936,-3.99483 c 6.92157,-6.92157 1.37927,-20.44428 -8.36811,-20.44428 -4.8779,0 -12.07196,7.31685 -12.07196,12.27716 0,5.99645 5.97122,11.8718 12.07196,11.8718 2.94356,0 6.03009,-1.37086 8.36811,-3.70048 z m -57.19502,-18.93634 c 12.33603,-4.92835 9.21586,-22.63764 -3.98642,-22.63764 -10.47234,0 -15.60507,11.03834 -8.67677,18.65964 4.02847,4.43215 8.22514,5.75255 12.66487,3.978 z M 186.07703,423.49337 c 21.05233,-7.74577 32.15964,-30.41117 27.3095,-55.72241 -4.03688,-21.04897 -27.29268,-11.37054 -41.92974,17.44774 -6.80382,13.39908 -18.36696,22.27432 -32.4624,24.91932 -8.00648,1.50542 -6.06373,4.71811 6.82905,11.31588 8.77517,4.49103 30.59367,5.59276 40.25443,2.03526 z m -11.59257,-91.42105 c 13.87341,-5.47502 29.81404,-25.52233 35.36643,-44.47128 3.9696,-13.55803 -33.23614,-9.52367 -52.37348,5.67686 -14.3284,11.38148 -27.0984,14.46549 -42.3536,10.22929 -7.71212,-2.14459 -8.36812,-1.00081 -4.06211,7.115 10.56317,19.91612 41.12404,30.25053 63.42444,21.44761 z m 372.73442,-78.22128 c 24.21203,-24.79738 48.79243,-41.26701 78.0043,-52.26415 5.58436,-2.10254 10.61868,-4.11257 11.19478,-4.4658 0.58871,-0.33641 0.0841,-3.87709 -1.08491,-7.82145 -3.53227,-11.89366 -3.137,-11.47484 -7.75418,-8.30084 -16.27788,11.19309 -38.11488,15.38977 -52.44412,10.07959 -3.32202,-1.22789 -6.68608,-2.38849 -7.48505,-2.57352 -0.75692,-0.1682 -1.94275,3.93596 -2.55669,9.15279 -2.18664,18.70253 -15.31408,35.97449 -35.53548,46.74708 -9.24025,4.91994 -9.24025,4.91994 -4.55831,15.4705 5.67686,12.77 3.20427,13.43861 22.21209,-6.02168 z m -331.71299,-9.72132 c 8.03171,-2.8174 14.9087,-4.81061 15.28043,-4.44056 1.01763,1.01763 11.61276,-14.22749 11.61276,-16.71017 0,-2.10254 -6.2908,-7.32525 -13.22162,-10.9719 -5.89553,-3.10335 -18.78832,-4.69288 -27.52144,-3.40612 -27.64506,4.08734 -48.18353,-6.98044 -48.31136,-26.03704 -0.0757,-11.27803 -8.0233,-6.66926 -9.88363,5.73574 -6.47583,43.18537 29.20431,70.83463 72.04486,55.83089 z m 311.34104,-24.07326 c 17.33167,-8.15786 22.50813,-30.02598 9.66497,-40.83473 -7.05614,-5.93758 -18.69581,-4.65923 -19.54776,2.153 -0.58871,4.63401 0.16821,6.01327 4.60036,8.30084 8.51614,4.40693 3.87709,15.85401 -6.41695,15.84223 -11.13002,-0.008 -19.79754,-9.45555 -19.91864,-21.69655 -0.25231,-23.18599 25.45421,-36.8298 47.86142,-25.4273 8.70368,4.43216 8.70368,4.43216 9.54133,0.50461 6.55152,-30.74757 53.43316,-38.88273 53.43316,-9.27221 0,13.75231 -17.33167,18.32492 -19.47458,5.13861 -1.63157,-10.03837 -13.72287,-6.23193 -13.72287,4.31442 0,28.03614 44.84385,22.90677 49.12042,-5.61799 4.80221,-32.04358 -28.32965,-46.8194 -68.73798,-30.6517 -9.5447,3.81822 -23.12544,8.80629 -30.17989,11.08292 -31.58438,10.19312 -46.92705,26.3499 -47.06077,49.55607 -0.1682,28.76614 26.57361,48.02542 50.83273,36.61283 z M 294.37224,179.92398 c 2.38848,-1.5727 7.45981,-4.01165 11.2713,-5.42456 9.73645,-3.61637 9.83485,-3.8939 3.86868,-10.86677 -10.30918,-12.04589 -24.51564,-18.73618 -46.90351,-22.08763 -35.08637,-5.25635 -49.32058,-23.40129 -41.85572,-53.365876 2.08572,-8.37652 -9.89876,1.01763 -15.65468,12.270436 -14.90198,29.13366 -3.62479,64.26545 24.9311,77.65192 8.91562,4.17985 17.61762,4.81061 43.30311,3.12858 4.97882,-0.33641 10.77174,-0.0841 12.8726,0.50461 2.63238,0.75692 5.17226,0.1682 8.16627,-1.78296 z m 146.91974,-6.57675 c 16.77828,-21.26259 11.01984,-58.26816 -15.35192,-98.649576 -20.09105,-30.7644 -18.80514,-49.38787 4.5499,-65.8516198 13.64045,-9.61617995 -1.55588,-12.30744 -19.61251,-3.4734 C 370.2269,25.265204 365.02017,74.664004 400.16458,107.0154 c 21.70243,19.97751 28.13117,32.54146 26.86543,52.50467 -0.67281,10.73979 9.16709,20.28701 14.26365,13.82716 z m -57.06383,-17.24925 c -0.0757,-22.86725 -14.80106,-44.76985 -41.09208,-61.107436 -33.94007,-21.09102 -41.00798,-39.82971 -24.47359,-64.88444 4.82744,-7.31685 4.71811,-7.76259 -1.62316,-6.72814 -17.9658,2.91833 -35.665,28.85781 -35.71882,52.3533 -0.0673,28.524756 15.78756,47.206266 48.68057,57.370786 17.08021,5.27318 26.91338,11.39074 34.35133,21.35426 7.63643,10.23013 19.90939,11.24524 19.87911,1.63998 z m 136.1009,-45.02047 c 25.05557,-7.71213 37.93154,-39.639646 25.65522,-63.617026 -22.04053,-43.0474498 -86.89722,-28.16397 -87.01328,19.96742 -0.0757,32.45231 29.46166,53.466796 61.35806,43.649606 z M 495.15826,89.492814 c -18.03897,-8.28401 -19.2433,-30.51461 -2.27916,-42.06261 16.45618,-11.20234 39.84233,6.26557 34.57589,25.82594 -4.2976,15.97175 -17.94141,22.8294 -32.29673,16.23667 z"
     id="path1"
     sodipodi:nodetypes="sssssssssssssssssssssssssssssssssssssssssssssssssssssssssssssssssssssssssssssssssssssssssssssssssssssssssssssssssssssssssssssssssssssssssssssssssssssssssssssssscssssssssssssssssssssssssssssssssssssssssssss" />
</svg>
