<?xml version="1.0" encoding="UTF-8" standalone="no"?>
<svg
   width="165.82791"
   height="166.02"
   viewBox="0 0 55.27597 55.340001"
   version="1.1"
   id="svg7"
   sodipodi:docname="abc.svg"
   inkscape:export-filename="../../home/kurisu/Gits/ugsto.github.io/src/lib/assets/favicon.svg"
   inkscape:export-xdpi="96"
   inkscape:export-ydpi="96"
   xmlns:inkscape="http://www.inkscape.org/namespaces/inkscape"
   xmlns:sodipodi="http://sodipodi.sourceforge.net/DTD/sodipodi-0.dtd"
   xmlns="http://www.w3.org/2000/svg"
   xmlns:svg="http://www.w3.org/2000/svg">
  <sodipodi:namedview
     id="namedview7"
     pagecolor="#ffffff"
     bordercolor="#000000"
     borderopacity="0.25"
     inkscape:showpageshadow="2"
     inkscape:pageopacity="0.0"
     inkscape:pagecheckerboard="0"
     inkscape:deskcolor="#d1d1d1"
     showgrid="false">
    <inkscape:page
       x="0"
       y="0"
       width="55.27597"
       height="55.34"
       id="page2"
       margin="0"
       bleed="0" />
  </sodipodi:namedview>
  <defs
     id="defs4">
    <filter
       id="cyan-glow"
       x="-0.052759706"
       y="-0.053400001"
       width="1.1055194"
       height="1.1068">
      <feGaussianBlur
         in="SourceGraphic"
         stdDeviation="0.8"
         result="blur1"
         id="feGaussianBlur1" />
      <feColorMatrix
         in="blur1"
         mode="matrix"
         values="0 0 0 0 0.2  0 0 0 0 0.8  0 0 0 0 0.8  0 0 0 1 0"
         result="colorGlow"
         id="feColorMatrix1" />
      <feMerge
         id="feMerge2">
        <feMergeNode
           in="colorGlow"
           id="feMergeNode1" />
        <feMergeNode
           in="SourceGraphic"
           id="feMergeNode2" />
      </feMerge>
    </filter>
    <filter
       id="white-glow"
       x="-0.24"
       y="-0.24"
       width="1.48"
       height="1.48">
      <feGaussianBlur
         in="SourceGraphic"
         stdDeviation="0.8"
         result="blur2"
         id="feGaussianBlur2" />
      <feMerge
         id="feMerge4">
        <feMergeNode
           in="blur2"
           id="feMergeNode3" />
        <feMergeNode
           in="SourceGraphic"
           id="feMergeNode4" />
      </feMerge>
    </filter>
  </defs>
  <rect
     x="23.637985"
     y="23.67"
     width="8"
     height="8"
     fill="#ffffff"
     filter="url(#white-glow)"
     id="rect4" />
  <g
     stroke="#00ffff"
     stroke-width="1.5"
     fill="none"
     opacity="0.8"
     filter="url(#cyan-glow)"
     id="g7"
     inkscape:export-filename="../../home/kurisu/Gits/ugsto.github.io/src/lib/assets/favicon.svg"
     inkscape:export-xdpi="96"
     inkscape:export-ydpi="96"
     transform="translate(-22.362015,-22.33)">
    <path
       d="m 50,40 a 10,10 0 1 1 0,20 m 0,0 a 10,10 0 1 1 0,-20"
       stroke-dasharray="2, 3, 2, 3, 2, 3, 2, 3"
       stroke-linecap="round"
       id="path4" />
    <path
       d="m 50,35 a 15,15 0 1 1 0,30 m 0,0 a 15,15 0 1 1 0,-30"
       stroke-dasharray="3, 4, 3, 4, 3, 4, 3, 4"
       stroke-linecap="round"
       id="path5" />
    <path
       d="m 50,30 a 20,20 0 1 1 0,40 m 0,0 a 20,20 0 1 1 0,-40"
       stroke-dasharray="4, 5, 4, 5, 4, 5, 4, 5"
       stroke-linecap="round"
       id="path6" />
    <path
       d="m 50,25 a 25,25 0 1 1 0,50 m 0,0 a 25,25 0 1 1 0,-50"
       stroke-dasharray="5, 6, 5, 6, 5, 6, 5, 6"
       stroke-linecap="round"
       id="path7" />
  </g>
</svg>
